<mxfile host="app.diagrams.net" modified="2021-03-23T18:32:43.217Z" agent="5.0 (Windows NT 10.0; Win64; x64) AppleWebKit/537.36 (KHTML, like Gecko) Chrome/89.0.4389.90 Safari/537.36" etag="WNX028TlFLf0P4fdH3AX" version="14.5.0" type="github" pages="2">
  <diagram id="C5RBs43oDa-KdzZeNtuy" name="Page-1">
    <mxGraphModel dx="462" dy="761" grid="1" gridSize="10" guides="1" tooltips="1" connect="1" arrows="1" fold="1" page="1" pageScale="1" pageWidth="1169" pageHeight="827" math="0" shadow="0">
      <root>
        <mxCell id="WIyWlLk6GJQsqaUBKTNV-0" />
        <mxCell id="WIyWlLk6GJQsqaUBKTNV-1" parent="WIyWlLk6GJQsqaUBKTNV-0" />
        <mxCell id="NgWSoo-fOcHoqoXjEku8-0" value="Sistemas de mapas - Flyweight" style="text;html=1;align=center;verticalAlign=middle;resizable=0;points=[];autosize=1;" vertex="1" parent="WIyWlLk6GJQsqaUBKTNV-1">
          <mxGeometry x="310" y="40" width="180" height="20" as="geometry" />
        </mxCell>
        <mxCell id="NgWSoo-fOcHoqoXjEku8-8" style="edgeStyle=orthogonalEdgeStyle;rounded=0;orthogonalLoop=1;jettySize=auto;html=1;exitX=1;exitY=0.5;exitDx=0;exitDy=0;entryX=0;entryY=0.25;entryDx=0;entryDy=0;startArrow=none;startFill=0;endArrow=classic;endFill=1;" edge="1" parent="WIyWlLk6GJQsqaUBKTNV-1" source="NgWSoo-fOcHoqoXjEku8-1" target="NgWSoo-fOcHoqoXjEku8-3">
          <mxGeometry relative="1" as="geometry" />
        </mxCell>
        <mxCell id="NgWSoo-fOcHoqoXjEku8-1" value="Cliente" style="rounded=0;whiteSpace=wrap;html=1;" vertex="1" parent="WIyWlLk6GJQsqaUBKTNV-1">
          <mxGeometry x="60" y="160" width="120" height="25" as="geometry" />
        </mxCell>
        <mxCell id="NgWSoo-fOcHoqoXjEku8-6" value="" style="edgeStyle=orthogonalEdgeStyle;rounded=0;orthogonalLoop=1;jettySize=auto;html=1;startArrow=none;startFill=0;endArrow=classic;endFill=1;" edge="1" parent="WIyWlLk6GJQsqaUBKTNV-1" source="NgWSoo-fOcHoqoXjEku8-2" target="NgWSoo-fOcHoqoXjEku8-4">
          <mxGeometry relative="1" as="geometry" />
        </mxCell>
        <mxCell id="NgWSoo-fOcHoqoXjEku8-2" value="MapasRotas()" style="swimlane;childLayout=stackLayout;horizontal=1;startSize=30;horizontalStack=0;rounded=1;fontSize=14;fontStyle=0;strokeWidth=2;resizeParent=0;resizeLast=1;shadow=0;dashed=0;align=center;" vertex="1" parent="WIyWlLk6GJQsqaUBKTNV-1">
          <mxGeometry x="330" y="130" width="160" height="80" as="geometry" />
        </mxCell>
        <mxCell id="NgWSoo-fOcHoqoXjEku8-3" value="tracarRota" style="align=left;strokeColor=none;fillColor=none;spacingLeft=4;fontSize=12;verticalAlign=top;resizable=0;rotatable=0;part=1;" vertex="1" parent="NgWSoo-fOcHoqoXjEku8-2">
          <mxGeometry y="30" width="160" height="50" as="geometry" />
        </mxCell>
        <mxCell id="NgWSoo-fOcHoqoXjEku8-4" value="Rota" style="swimlane;childLayout=stackLayout;horizontal=1;startSize=30;horizontalStack=0;rounded=1;fontSize=14;fontStyle=0;strokeWidth=2;resizeParent=0;resizeLast=1;shadow=0;dashed=0;align=center;" vertex="1" parent="WIyWlLk6GJQsqaUBKTNV-1">
          <mxGeometry x="570" y="130" width="160" height="80" as="geometry" />
        </mxCell>
        <mxCell id="NgWSoo-fOcHoqoXjEku8-5" value="ponto()" style="align=left;strokeColor=none;fillColor=none;spacingLeft=4;fontSize=12;verticalAlign=top;resizable=0;rotatable=0;part=1;" vertex="1" parent="NgWSoo-fOcHoqoXjEku8-4">
          <mxGeometry y="30" width="160" height="50" as="geometry" />
        </mxCell>
        <mxCell id="NgWSoo-fOcHoqoXjEku8-9" value="RotaCarro" style="swimlane;childLayout=stackLayout;horizontal=1;startSize=30;horizontalStack=0;rounded=1;fontSize=14;fontStyle=0;strokeWidth=2;resizeParent=0;resizeLast=1;shadow=0;dashed=0;align=center;" vertex="1" parent="WIyWlLk6GJQsqaUBKTNV-1">
          <mxGeometry x="50" y="310" width="160" height="80" as="geometry" />
        </mxCell>
        <mxCell id="NgWSoo-fOcHoqoXjEku8-10" value="tracarRota()" style="align=left;strokeColor=none;fillColor=none;spacingLeft=4;fontSize=12;verticalAlign=top;resizable=0;rotatable=0;part=1;" vertex="1" parent="NgWSoo-fOcHoqoXjEku8-9">
          <mxGeometry y="30" width="160" height="50" as="geometry" />
        </mxCell>
        <mxCell id="NgWSoo-fOcHoqoXjEku8-16" style="edgeStyle=orthogonalEdgeStyle;rounded=0;orthogonalLoop=1;jettySize=auto;html=1;exitX=0.5;exitY=0;exitDx=0;exitDy=0;entryX=0.5;entryY=1;entryDx=0;entryDy=0;startArrow=none;startFill=0;endArrow=classic;endFill=1;" edge="1" parent="WIyWlLk6GJQsqaUBKTNV-1" source="NgWSoo-fOcHoqoXjEku8-11" target="NgWSoo-fOcHoqoXjEku8-3">
          <mxGeometry relative="1" as="geometry" />
        </mxCell>
        <mxCell id="NgWSoo-fOcHoqoXjEku8-11" value="RotaOnibus" style="swimlane;childLayout=stackLayout;horizontal=1;startSize=30;horizontalStack=0;rounded=1;fontSize=14;fontStyle=0;strokeWidth=2;resizeParent=0;resizeLast=1;shadow=0;dashed=0;align=center;" vertex="1" parent="WIyWlLk6GJQsqaUBKTNV-1">
          <mxGeometry x="250" y="310" width="160" height="80" as="geometry" />
        </mxCell>
        <mxCell id="NgWSoo-fOcHoqoXjEku8-12" value="tracarRota()" style="align=left;strokeColor=none;fillColor=none;spacingLeft=4;fontSize=12;verticalAlign=top;resizable=0;rotatable=0;part=1;" vertex="1" parent="NgWSoo-fOcHoqoXjEku8-11">
          <mxGeometry y="30" width="160" height="50" as="geometry" />
        </mxCell>
        <mxCell id="NgWSoo-fOcHoqoXjEku8-17" style="edgeStyle=orthogonalEdgeStyle;rounded=0;orthogonalLoop=1;jettySize=auto;html=1;exitX=0.5;exitY=0;exitDx=0;exitDy=0;startArrow=none;startFill=0;endArrow=classic;endFill=1;" edge="1" parent="WIyWlLk6GJQsqaUBKTNV-1" source="NgWSoo-fOcHoqoXjEku8-13">
          <mxGeometry relative="1" as="geometry">
            <mxPoint x="410" y="210" as="targetPoint" />
          </mxGeometry>
        </mxCell>
        <mxCell id="NgWSoo-fOcHoqoXjEku8-13" value="RotaMoto" style="swimlane;childLayout=stackLayout;horizontal=1;startSize=30;horizontalStack=0;rounded=1;fontSize=14;fontStyle=0;strokeWidth=2;resizeParent=0;resizeLast=1;shadow=0;dashed=0;align=center;" vertex="1" parent="WIyWlLk6GJQsqaUBKTNV-1">
          <mxGeometry x="440" y="310" width="160" height="80" as="geometry" />
        </mxCell>
        <mxCell id="NgWSoo-fOcHoqoXjEku8-14" value="tracarRota()" style="align=left;strokeColor=none;fillColor=none;spacingLeft=4;fontSize=12;verticalAlign=top;resizable=0;rotatable=0;part=1;" vertex="1" parent="NgWSoo-fOcHoqoXjEku8-13">
          <mxGeometry y="30" width="160" height="50" as="geometry" />
        </mxCell>
        <mxCell id="NgWSoo-fOcHoqoXjEku8-15" style="edgeStyle=orthogonalEdgeStyle;rounded=0;orthogonalLoop=1;jettySize=auto;html=1;exitX=1;exitY=0.25;exitDx=0;exitDy=0;startArrow=none;startFill=0;endArrow=classic;endFill=1;" edge="1" parent="WIyWlLk6GJQsqaUBKTNV-1" source="NgWSoo-fOcHoqoXjEku8-10" target="NgWSoo-fOcHoqoXjEku8-3">
          <mxGeometry relative="1" as="geometry">
            <Array as="points">
              <mxPoint x="230" y="353" />
              <mxPoint x="230" y="260" />
              <mxPoint x="410" y="260" />
            </Array>
          </mxGeometry>
        </mxCell>
        <mxCell id="NgWSoo-fOcHoqoXjEku8-25" style="edgeStyle=orthogonalEdgeStyle;rounded=0;orthogonalLoop=1;jettySize=auto;html=1;exitX=0.5;exitY=0;exitDx=0;exitDy=0;entryX=0.5;entryY=1;entryDx=0;entryDy=0;startArrow=none;startFill=0;endArrow=classic;endFill=1;" edge="1" parent="WIyWlLk6GJQsqaUBKTNV-1" source="NgWSoo-fOcHoqoXjEku8-18" target="NgWSoo-fOcHoqoXjEku8-5">
          <mxGeometry relative="1" as="geometry">
            <Array as="points">
              <mxPoint x="505" y="410" />
              <mxPoint x="650" y="410" />
            </Array>
          </mxGeometry>
        </mxCell>
        <mxCell id="NgWSoo-fOcHoqoXjEku8-18" value="Latitude" style="swimlane;childLayout=stackLayout;horizontal=1;startSize=30;horizontalStack=0;rounded=1;fontSize=14;fontStyle=0;strokeWidth=2;resizeParent=0;resizeLast=1;shadow=0;dashed=0;align=center;" vertex="1" parent="WIyWlLk6GJQsqaUBKTNV-1">
          <mxGeometry x="450" y="460" width="110" height="80" as="geometry" />
        </mxCell>
        <mxCell id="NgWSoo-fOcHoqoXjEku8-19" value="ponto()" style="align=left;strokeColor=none;fillColor=none;spacingLeft=4;fontSize=12;verticalAlign=top;resizable=0;rotatable=0;part=1;" vertex="1" parent="NgWSoo-fOcHoqoXjEku8-18">
          <mxGeometry y="30" width="110" height="50" as="geometry" />
        </mxCell>
        <mxCell id="NgWSoo-fOcHoqoXjEku8-24" style="edgeStyle=orthogonalEdgeStyle;rounded=0;orthogonalLoop=1;jettySize=auto;html=1;exitX=0.5;exitY=0;exitDx=0;exitDy=0;entryX=0.5;entryY=1;entryDx=0;entryDy=0;startArrow=none;startFill=0;endArrow=classic;endFill=1;" edge="1" parent="WIyWlLk6GJQsqaUBKTNV-1" source="NgWSoo-fOcHoqoXjEku8-20" target="NgWSoo-fOcHoqoXjEku8-4">
          <mxGeometry relative="1" as="geometry" />
        </mxCell>
        <mxCell id="NgWSoo-fOcHoqoXjEku8-20" value="Longitude" style="swimlane;childLayout=stackLayout;horizontal=1;startSize=30;horizontalStack=0;rounded=1;fontSize=14;fontStyle=0;strokeWidth=2;resizeParent=0;resizeLast=1;shadow=0;dashed=0;align=center;" vertex="1" parent="WIyWlLk6GJQsqaUBKTNV-1">
          <mxGeometry x="595" y="460" width="110" height="80" as="geometry" />
        </mxCell>
        <mxCell id="NgWSoo-fOcHoqoXjEku8-21" value="ponto()" style="align=left;strokeColor=none;fillColor=none;spacingLeft=4;fontSize=12;verticalAlign=top;resizable=0;rotatable=0;part=1;" vertex="1" parent="NgWSoo-fOcHoqoXjEku8-20">
          <mxGeometry y="30" width="110" height="50" as="geometry" />
        </mxCell>
        <mxCell id="NgWSoo-fOcHoqoXjEku8-26" style="edgeStyle=orthogonalEdgeStyle;rounded=0;orthogonalLoop=1;jettySize=auto;html=1;exitX=0.5;exitY=0;exitDx=0;exitDy=0;entryX=0.5;entryY=1;entryDx=0;entryDy=0;startArrow=none;startFill=0;endArrow=classic;endFill=1;" edge="1" parent="WIyWlLk6GJQsqaUBKTNV-1" source="NgWSoo-fOcHoqoXjEku8-22" target="NgWSoo-fOcHoqoXjEku8-5">
          <mxGeometry relative="1" as="geometry">
            <Array as="points">
              <mxPoint x="805" y="410" />
              <mxPoint x="650" y="410" />
            </Array>
          </mxGeometry>
        </mxCell>
        <mxCell id="NgWSoo-fOcHoqoXjEku8-22" value="Coordenada" style="swimlane;childLayout=stackLayout;horizontal=1;startSize=30;horizontalStack=0;rounded=1;fontSize=14;fontStyle=0;strokeWidth=2;resizeParent=0;resizeLast=1;shadow=0;dashed=0;align=center;" vertex="1" parent="WIyWlLk6GJQsqaUBKTNV-1">
          <mxGeometry x="750" y="460" width="110" height="80" as="geometry" />
        </mxCell>
        <mxCell id="NgWSoo-fOcHoqoXjEku8-23" value="ponto()" style="align=left;strokeColor=none;fillColor=none;spacingLeft=4;fontSize=12;verticalAlign=top;resizable=0;rotatable=0;part=1;" vertex="1" parent="NgWSoo-fOcHoqoXjEku8-22">
          <mxGeometry y="30" width="110" height="50" as="geometry" />
        </mxCell>
        <mxCell id="NgWSoo-fOcHoqoXjEku8-27" style="edgeStyle=orthogonalEdgeStyle;rounded=0;orthogonalLoop=1;jettySize=auto;html=1;exitX=0.5;exitY=1;exitDx=0;exitDy=0;entryX=0.591;entryY=1;entryDx=0;entryDy=0;entryPerimeter=0;startArrow=none;startFill=0;endArrow=classic;endFill=1;" edge="1" parent="WIyWlLk6GJQsqaUBKTNV-1" source="NgWSoo-fOcHoqoXjEku8-23" target="NgWSoo-fOcHoqoXjEku8-21">
          <mxGeometry relative="1" as="geometry">
            <Array as="points">
              <mxPoint x="805" y="600" />
              <mxPoint x="660" y="600" />
            </Array>
          </mxGeometry>
        </mxCell>
        <mxCell id="NgWSoo-fOcHoqoXjEku8-28" style="edgeStyle=orthogonalEdgeStyle;rounded=0;orthogonalLoop=1;jettySize=auto;html=1;exitX=0.5;exitY=1;exitDx=0;exitDy=0;entryX=0.5;entryY=1;entryDx=0;entryDy=0;startArrow=diamond;startFill=0;endArrow=classic;endFill=1;" edge="1" parent="WIyWlLk6GJQsqaUBKTNV-1" source="NgWSoo-fOcHoqoXjEku8-23" target="NgWSoo-fOcHoqoXjEku8-19">
          <mxGeometry relative="1" as="geometry">
            <Array as="points">
              <mxPoint x="805" y="600" />
              <mxPoint x="505" y="600" />
            </Array>
          </mxGeometry>
        </mxCell>
        <mxCell id="NgWSoo-fOcHoqoXjEku8-29" value="Obs&lt;br&gt;Poderia usar o TemplateMethod em tracarRota()." style="shape=note;size=20;whiteSpace=wrap;html=1;" vertex="1" parent="WIyWlLk6GJQsqaUBKTNV-1">
          <mxGeometry x="70" y="500" width="320" height="50" as="geometry" />
        </mxCell>
      </root>
    </mxGraphModel>
  </diagram>
  <diagram id="gJvPcWavC9v2vCjyj011" name="Page-2">
    <mxGraphModel dx="462" dy="761" grid="1" gridSize="10" guides="1" tooltips="1" connect="1" arrows="1" fold="1" page="1" pageScale="1" pageWidth="827" pageHeight="1169" math="0" shadow="0">
      <root>
        <mxCell id="MA_nOqeNWP1o4pDqXl-5-0" />
        <mxCell id="MA_nOqeNWP1o4pDqXl-5-1" parent="MA_nOqeNWP1o4pDqXl-5-0" />
        <mxCell id="3UXA6sO0aQjLdaKUkEe5-12" style="edgeStyle=orthogonalEdgeStyle;rounded=0;orthogonalLoop=1;jettySize=auto;html=1;exitX=0.494;exitY=0.962;exitDx=0;exitDy=0;entryX=0.5;entryY=0;entryDx=0;entryDy=0;startArrow=none;startFill=0;endArrow=classic;endFill=1;exitPerimeter=0;" parent="MA_nOqeNWP1o4pDqXl-5-1" source="3UXA6sO0aQjLdaKUkEe5-46" target="dFbaML14pZRQMppi__lf-0" edge="1">
          <mxGeometry relative="1" as="geometry">
            <mxPoint x="300" y="240" as="sourcePoint" />
            <mxPoint x="504" y="335" as="targetPoint" />
            <Array as="points">
              <mxPoint x="289" y="300" />
              <mxPoint x="400" y="300" />
            </Array>
          </mxGeometry>
        </mxCell>
        <mxCell id="3UXA6sO0aQjLdaKUkEe5-35" value="Carrinho" style="swimlane;fontStyle=2;align=center;verticalAlign=top;childLayout=stackLayout;horizontal=1;startSize=26;horizontalStack=0;resizeParent=1;resizeLast=0;collapsible=1;marginBottom=0;rounded=0;shadow=0;strokeWidth=1;" parent="MA_nOqeNWP1o4pDqXl-5-1" vertex="1">
          <mxGeometry x="424" y="120" width="160" height="164" as="geometry">
            <mxRectangle x="230" y="140" width="160" height="26" as="alternateBounds" />
          </mxGeometry>
        </mxCell>
        <mxCell id="3UXA6sO0aQjLdaKUkEe5-36" value="Nome" style="text;align=left;verticalAlign=top;spacingLeft=4;spacingRight=4;overflow=hidden;rotatable=0;points=[[0,0.5],[1,0.5]];portConstraint=eastwest;" parent="3UXA6sO0aQjLdaKUkEe5-35" vertex="1">
          <mxGeometry y="26" width="160" height="26" as="geometry" />
        </mxCell>
        <mxCell id="3UXA6sO0aQjLdaKUkEe5-37" value="Preço&#xa;" style="text;align=left;verticalAlign=top;spacingLeft=4;spacingRight=4;overflow=hidden;rotatable=0;points=[[0,0.5],[1,0.5]];portConstraint=eastwest;rounded=0;shadow=0;html=0;" parent="3UXA6sO0aQjLdaKUkEe5-35" vertex="1">
          <mxGeometry y="52" width="160" height="26" as="geometry" />
        </mxCell>
        <mxCell id="3UXA6sO0aQjLdaKUkEe5-38" value="Quantidade" style="text;align=left;verticalAlign=top;spacingLeft=4;spacingRight=4;overflow=hidden;rotatable=0;points=[[0,0.5],[1,0.5]];portConstraint=eastwest;rounded=0;shadow=0;html=0;" parent="3UXA6sO0aQjLdaKUkEe5-35" vertex="1">
          <mxGeometry y="78" width="160" height="26" as="geometry" />
        </mxCell>
        <mxCell id="3UXA6sO0aQjLdaKUkEe5-39" value="" style="line;html=1;strokeWidth=1;align=left;verticalAlign=middle;spacingTop=-1;spacingLeft=3;spacingRight=3;rotatable=0;labelPosition=right;points=[];portConstraint=eastwest;" parent="3UXA6sO0aQjLdaKUkEe5-35" vertex="1">
          <mxGeometry y="104" width="160" height="8" as="geometry" />
        </mxCell>
        <mxCell id="3UXA6sO0aQjLdaKUkEe5-40" value="+ geters() e seters()" style="text;align=left;verticalAlign=top;spacingLeft=4;spacingRight=4;overflow=hidden;rotatable=0;points=[[0,0.5],[1,0.5]];portConstraint=eastwest;" parent="3UXA6sO0aQjLdaKUkEe5-35" vertex="1">
          <mxGeometry y="112" width="160" height="26" as="geometry" />
        </mxCell>
        <mxCell id="dFbaML14pZRQMppi__lf-6" value="+ColocarNoCarrinho()" style="text;align=left;verticalAlign=top;spacingLeft=4;spacingRight=4;overflow=hidden;rotatable=0;points=[[0,0.5],[1,0.5]];portConstraint=eastwest;" parent="3UXA6sO0aQjLdaKUkEe5-35" vertex="1">
          <mxGeometry y="138" width="160" height="26" as="geometry" />
        </mxCell>
        <mxCell id="3UXA6sO0aQjLdaKUkEe5-41" value="Produto" style="swimlane;fontStyle=2;align=center;verticalAlign=top;childLayout=stackLayout;horizontal=1;startSize=26;horizontalStack=0;resizeParent=1;resizeLast=0;collapsible=1;marginBottom=0;rounded=0;shadow=0;strokeWidth=1;" parent="MA_nOqeNWP1o4pDqXl-5-1" vertex="1">
          <mxGeometry x="210" y="120" width="160" height="138" as="geometry">
            <mxRectangle x="230" y="140" width="160" height="26" as="alternateBounds" />
          </mxGeometry>
        </mxCell>
        <mxCell id="3UXA6sO0aQjLdaKUkEe5-42" value="Nome" style="text;align=left;verticalAlign=top;spacingLeft=4;spacingRight=4;overflow=hidden;rotatable=0;points=[[0,0.5],[1,0.5]];portConstraint=eastwest;" parent="3UXA6sO0aQjLdaKUkEe5-41" vertex="1">
          <mxGeometry y="26" width="160" height="26" as="geometry" />
        </mxCell>
        <mxCell id="3UXA6sO0aQjLdaKUkEe5-43" value="Preço&#xa;" style="text;align=left;verticalAlign=top;spacingLeft=4;spacingRight=4;overflow=hidden;rotatable=0;points=[[0,0.5],[1,0.5]];portConstraint=eastwest;rounded=0;shadow=0;html=0;" parent="3UXA6sO0aQjLdaKUkEe5-41" vertex="1">
          <mxGeometry y="52" width="160" height="26" as="geometry" />
        </mxCell>
        <mxCell id="3UXA6sO0aQjLdaKUkEe5-44" value="Quantidade" style="text;align=left;verticalAlign=top;spacingLeft=4;spacingRight=4;overflow=hidden;rotatable=0;points=[[0,0.5],[1,0.5]];portConstraint=eastwest;rounded=0;shadow=0;html=0;" parent="3UXA6sO0aQjLdaKUkEe5-41" vertex="1">
          <mxGeometry y="78" width="160" height="26" as="geometry" />
        </mxCell>
        <mxCell id="3UXA6sO0aQjLdaKUkEe5-45" value="" style="line;html=1;strokeWidth=1;align=left;verticalAlign=middle;spacingTop=-1;spacingLeft=3;spacingRight=3;rotatable=0;labelPosition=right;points=[];portConstraint=eastwest;" parent="3UXA6sO0aQjLdaKUkEe5-41" vertex="1">
          <mxGeometry y="104" width="160" height="8" as="geometry" />
        </mxCell>
        <mxCell id="3UXA6sO0aQjLdaKUkEe5-46" value="+ geters() e seters()" style="text;align=left;verticalAlign=top;spacingLeft=4;spacingRight=4;overflow=hidden;rotatable=0;points=[[0,0.5],[1,0.5]];portConstraint=eastwest;" parent="3UXA6sO0aQjLdaKUkEe5-41" vertex="1">
          <mxGeometry y="112" width="160" height="26" as="geometry" />
        </mxCell>
        <mxCell id="xGOv_8FkbYRrHrn0Y51W-0" value="Sistema Mercado" style="text;html=1;align=center;verticalAlign=middle;resizable=0;points=[];autosize=1;" parent="MA_nOqeNWP1o4pDqXl-5-1" vertex="1">
          <mxGeometry x="345" y="60" width="110" height="20" as="geometry" />
        </mxCell>
        <mxCell id="dFbaML14pZRQMppi__lf-0" value="Operação" style="swimlane;fontStyle=2;align=center;verticalAlign=top;childLayout=stackLayout;horizontal=1;startSize=26;horizontalStack=0;resizeParent=1;resizeLast=0;collapsible=1;marginBottom=0;rounded=0;shadow=0;strokeWidth=1;" parent="MA_nOqeNWP1o4pDqXl-5-1" vertex="1">
          <mxGeometry x="320" y="370" width="160" height="70" as="geometry">
            <mxRectangle x="230" y="140" width="160" height="26" as="alternateBounds" />
          </mxGeometry>
        </mxCell>
        <mxCell id="dFbaML14pZRQMppi__lf-4" value="" style="line;html=1;strokeWidth=1;align=left;verticalAlign=middle;spacingTop=-1;spacingLeft=3;spacingRight=3;rotatable=0;labelPosition=right;points=[];portConstraint=eastwest;" parent="dFbaML14pZRQMppi__lf-0" vertex="1">
          <mxGeometry y="26" width="160" height="8" as="geometry" />
        </mxCell>
        <mxCell id="dFbaML14pZRQMppi__lf-5" value="+ MostrarCompra()" style="text;align=left;verticalAlign=top;spacingLeft=4;spacingRight=4;overflow=hidden;rotatable=0;points=[[0,0.5],[1,0.5]];portConstraint=eastwest;" parent="dFbaML14pZRQMppi__lf-0" vertex="1">
          <mxGeometry y="34" width="160" height="26" as="geometry" />
        </mxCell>
        <mxCell id="3UXA6sO0aQjLdaKUkEe5-18" style="edgeStyle=orthogonalEdgeStyle;rounded=0;orthogonalLoop=1;jettySize=auto;html=1;startArrow=none;startFill=0;endArrow=classic;endFill=1;entryX=0.5;entryY=0;entryDx=0;entryDy=0;exitX=0.494;exitY=1.077;exitDx=0;exitDy=0;exitPerimeter=0;" parent="dFbaML14pZRQMppi__lf-0" source="dFbaML14pZRQMppi__lf-6" edge="1">
          <mxGeometry relative="1" as="geometry">
            <mxPoint x="79.5" as="targetPoint" />
            <mxPoint x="187" y="-71" as="sourcePoint" />
            <Array as="points">
              <mxPoint x="183" y="-70" />
              <mxPoint x="80" y="-70" />
            </Array>
          </mxGeometry>
        </mxCell>
      </root>
    </mxGraphModel>
  </diagram>
</mxfile>
